<?xml version="1.0"?>
<svg xmlns="http://www.w3.org/2000/svg" height="512px" viewBox="0 0 512 512.05429" width="512px"><g><path d="m210.3125 320.054688c-19.175781.523437-38.214844-3.339844-55.671875-11.292969.253906 1.09375.578125 2.171875.980469 3.21875.21875.605469.328125 1.234375.59375 1.828125.816406 1.785156 1.839844 3.464844 3.042968 5.011718 9.546876 12.207032 32.046876 19.519532 60.199219 19.519532 2.742188 0 5.394531-.144532 8-.375.914063-.074219 1.761719-.199219 2.640625-.3125 1.652344-.1875 3.28125-.425782 4.882813-.710938 1.015625-.191406 2.019531-.382812 3.007812-.605468 1.445313-.328126 2.863281-.710938 4.261719-1.113282.914062-.265625 1.882812-.503906 2.742188-.804687 1.972656-.660157 3.894531-1.417969 5.769531-2.25.914062-.410157 1.828125-.914063 2.742187-1.324219 1.171875-.585938 2.320313-1.199219 3.445313-1.828125.804687-.46875 1.621093-.914063 2.398437-1.425781 1.734375-1.117188 3.4375-2.304688 5.074219-3.59375.382813-.304688.75-.632813 1.121094-.914063 1.730469-1.417969 3.382812-2.921875 4.957031-4.507812l.136719-.136719c1.859375-1.910156 3.605469-3.921875 5.230469-6.027344 0 0 .101562-.074218.136718-.128906 3.851563-4.980469 7.109375-10.390625 9.710938-16.125-22.679688 14.277344-48.640625 22.503906-75.402344 23.898438zm0 0" data-original="#000000" class="active-path" data-old_color="#000000" fill="#31456A"/><path d="m339.554688 187c-.042969-.15625-.117188-.304688-.164063-.46875-4.816406-15.414062-27.425781-21.027344-46.363281-22.929688-3.171875-.328124-6.34375-.558593-9.488282-.714843l-1.554687-.070313-2.851563-.109375c-3.246093-.09375-6.464843-.121093-9.609374-.082031 19.578124 12.160156 34.664062 30.371094 42.96875 51.875.230468.648438.367187 1.269531.578124 1.910156.070313.175782.101563.347656.164063.523438 2.613281 8.09375 4 16.535156 4.113281 25.039062 7.769532-9.769531 14.207032-20.53125 19.144532-32 .667968-1.671875 1.273437-3.316406 1.757812-4.898437.0625-.203125.109375-.394531.171875-.59375 1.519531-4.589844 2.105469-9.4375 1.71875-14.253907.003906-.054687.003906-.109374 0-.164062 0-.148438 0-.3125 0-.457031-.136719-.882813-.335937-1.75-.585937-2.605469zm0 0" data-original="#000000" class="active-path" data-old_color="#000000" fill="#31456A"/><path d="m282.863281 371.976562.402344.089844c1.078125.222656 2.175781.402344 3.269531.605469 1.097656.199219 2.140625.382813 3.230469.558594 1.085937.171875 2.292969.320312 3.453125.464843 1.164062.144532 2.105469.265626 3.15625.375 1.050781.109376 2.359375.210938 3.539062.292969 1.179688.082031 2.121094.136719 3.179688.183594 1.0625.042969 2.351562.070313 3.519531.082031 1.171875.007813 2.1875 0 3.273438 0 1.089843 0 2.304687-.066406 3.457031-.136718 1.152344-.074219 2.25-.183594 3.375-.292969s2.230469-.210938 3.335938-.367188c1.105468-.15625 2.367187-.394531 3.546874-.613281 1.179688-.21875 2.09375-.347656 3.128907-.582031 1.535156-.347657 3.042969-.789063 4.570312-1.226563 1.28125-.371094 2.550781-.785156 3.8125-1.234375 1.480469-.523437 2.972657-1.050781 4.433594-1.683593.914063-.382813 1.828125-.859376 2.679687-1.289063 1.207032-.574219 2.421876-1.160156 3.65625-1.828125.914063-.511719 1.828126-1.097656 2.742188-1.664062 1.125-.695313 2.257812-1.40625 3.375-2.195313.914062-.628906 1.773438-1.304687 2.652344-1.992187 1.097656-.851563 2.183594-1.738282 3.246094-2.667969.839843-.734375 1.671874-1.5 2.496093-2.285157 1.085938-1.054687 2.15625-2.160156 3.214844-3.300781.742187-.804687 1.484375-1.609375 2.207031-2.46875 1.148438-1.34375 2.257813-2.746093 3.355469-4.261719.59375-.804687 1.203125-1.574218 1.828125-2.414062 1.828125-2.613281 3.554688-5.359375 5.136719-8.226562 1.789062-3.238282 3.402343-6.570313 4.835937-9.976563.386719-.914063.722656-1.828125 1.070313-2.6875.96875-2.480469 1.808593-4.917969 2.515625-7.316406.226562-.792969.5-1.597657.703125-2.386719.789062-2.9375 1.398437-5.917969 1.828125-8.929688.054687-.441406.0625-.871093.117187-1.308593.28125-2.429688.433594-4.871094.457031-7.3125 0-.824219 0-1.636719 0-2.453125-.050781-2.113282-.214843-4.21875-.484374-6.316406-.070313-.59375-.109376-1.199219-.199219-1.828126-.386719-2.519531-.921875-5.011718-1.601563-7.46875-.152344-.578124-.355468-1.125-.527344-1.691406-.578124-1.886718-1.226562-3.730468-1.949218-5.488281-.273438-.695313-.558594-1.378906-.851563-2.054687-.832031-1.902344-1.726562-3.75-2.742187-5.542969-.171875-.328125-.335938-.683594-.519532-1.015625-1.171874-2.09375-2.441406-4.09375-3.769531-6.042969-.363281-.539063-.746093-1.050781-1.121093-1.582031-1.042969-1.453125-2.105469-2.859375-3.203126-4.222656l-1.277343-1.574219c-1.445313-1.71875-2.917969-3.390625-4.425781-4.960938l-.128907-.128906c-1.226562-1.28125-2.476562-2.460937-3.730469-3.65625 9.429688 25.476563 7.339844 53.792969-5.722656 77.613281-23.5625 39.128906-49.921875 51.8125-72.546875 56.410156zm0 0" data-original="#000000" class="active-path" data-old_color="#000000" fill="#31456A"/><path d="m131.144531 331.785156c-.609375 1.511719-1.183593 3.035156-1.726562 4.570313-.277344.769531-.539063 1.535156-.804688 2.324219-.574219 1.753906-1.105469 3.535156-1.59375 5.339843-.152343.546875-.328125 1.085938-.464843 1.644531-.609376 2.332032-1.105469 4.675782-1.488282 7.019532-.101562.578125-.15625 1.164062-.238281 1.738281-.265625 1.828125-.476563 3.574219-.605469 5.347656-.054687.777344-.089844 1.554688-.117187 2.324219-.054688 1.652344 0 3.289062.046875 4.917969 0 .703125 0 1.417969.109375 2.113281.183593 2.242188.535156 4.464844 1.050781 6.65625.605469 2.394531 1.488281 4.710938 2.632812 6.902344.320313.628906.730469 1.1875 1.097657 1.828125.871093 1.472656 1.875 2.863281 2.996093 4.152343.523438.59375 1.089844 1.160157 1.664063 1.71875 1.222656 1.167969 2.539063 2.238282 3.933594 3.199219.683593.472657 1.34375.976563 2.085937 1.417969 1.664063.953125 3.390625 1.792969 5.171875 2.511719.761719.320312 1.425781.695312 2.222657.980469 2.667968.9375 5.398437 1.679687 8.175781 2.21875 1.460937.292968 3.097656.449218 4.660156.660156 1.5625.210937 3.347656.476562 5.128906.613281 1.785157.136719 3.660157.183594 5.542969.238281 2.148438.042969 4.324219.082032 6.609375 0 1.214844 0 2.414063-.066406 3.59375-.121094 4.023437-.210937 8.226563-.539062 12.605469-1.105468 17.796875-1.6875 34.765625-8.308594 49-19.117188l.792968-.648437c1.828126-1.539063 3.609376-3.148438 5.339844-4.839844.15625-.164063.328125-.316406.484375-.472656 1.871094-1.894531 3.632813-3.886719 5.285157-5.972657.046874-.042968.09375-.085937.144531-.125 2.359375-3.046874 4.5-6.253906 6.402343-9.601562.089844-.15625.253907-.226562.355469-.375 2.996094-5.230469 5.46875-10.742188 7.378907-16.457031l-.257813.128906c-10.679687 6.632813-22.699219 10.816406-35.1875 12.242187-4.550781.585938-9.128906.875-13.714844.867188-34.242187 0-61.433593-9.679688-74.617187-26.511719-1.332032-1.738281-2.535156-3.570312-3.59375-5.488281-.28125-.492188-.539063-.988281-.792969-1.488281-.832031-1.628907-1.558594-3.308594-2.167969-5.03125-.089844-.246094-.226562-.464844-.3125-.722657-.097656.183594-.199218.347657-.300781.542969-.96875 1.773438-1.9375 3.65625-2.886719 5.585938-.128906.265625-.257812.554687-.386718.832031-.820313 1.734375-1.625 3.527344-2.394532 5.367188-.320312.636718-.574218 1.359374-.859375 2.074218zm0 0" data-original="#000000" class="active-path" data-old_color="#000000" fill="#31456A"/><path d="m201.171875 64.054688c4.21875.027343 8.433594.335937 12.617187.914062.914063.128906 1.828126.328125 2.742188.476562 3.3125.527344 6.59375 1.246094 9.828125 2.148438.730469.210938 1.460937.417969 2.195313.648438 8.03125 2.46875 15.664062 6.078124 22.671874 10.714843 4.882813-.914062 9.699219-1.984375 14.335938-3.179687 1.179688-.304688 2.339844-.625 3.503906-.917969 1.542969-.417969 2.996094-.914063 4.570313-1.34375-.640625-.207031-1.226563-.464844-1.828125-.675781-4.40625-1.472656-8.714844-3.039063-12.917969-4.691406-.523437-.207032-1.054687-.390626-1.574219-.601563-4.964844-2.011719-9.78125-4.125-14.492187-6.300781l-1.207031-.574219c-9.535157-4.460937-18.613282-9.144531-27.261719-13.640625-8.320313-4.324219-16.175781-8.402344-23.726563-11.886719-.09375 0-.15625-.117187-.246094-.15625-11.289062-5.921875-23.710937-9.363281-36.4375-10.101562-4.679687-.023438-9.332031.714843-13.777343 2.183593-57.03125 18.917969-80.410157 75.988282-76.050781 127.371094l1.007812-.660156c1.058594-.703125 2.09375-1.433594 3.152344-2.136719 2.050781-1.382812 4.003906-2.746093 5.988281-4.1875-.0625-.3125-.089844-.632812-.144531-.914062-.164063-.851563-.3125-1.710938-.421875-2.582031-.335938-2.238282-.515625-4.5-.527344-6.765626 0-35.453124 44.863281-73.140624 128-73.140624zm0 0" data-original="#000000" class="active-path" data-old_color="#000000" fill="#31456A"/><path d="m92.160156 143.394531c.296875 1.480469.6875 2.941407 1.167969 4.371094.09375.285156.203125.558594.304687.832031 3.796876 8.785156 9.050782 16.867188 15.542969 23.898438 1.488281-3.769532 3.234375-7.4375 5.226563-10.96875.441406-.789063.917968-1.574219 1.390625-2.367188 1.507812-2.542968 3.152343-5.03125 4.9375-7.460937.640625-.914063 1.261719-1.757813 1.9375-2.625 2.507812-3.226563 5.207031-6.300781 8.082031-9.207031 2.085938-2.070313 4.324219-3.980469 6.695312-5.714844.265626-.199219.527344-.421875.792969-.613282 2.140625-1.527343 4.390625-2.894531 6.730469-4.09375.375-.191406.742188-.394531 1.117188-.566406 2.242187-1.105468 4.554687-2.054687 6.929687-2.84375.355469-.121094.710937-.222656 1.070313-.332031 2.394531-.765625 4.835937-1.375 7.3125-1.828125l.632812-.089844c2.507812-.414062 5.039062-.683594 7.578125-.8125h.246094c2.527343-.101562 5.054687-.074218 7.578125.082032l.96875.042968c2.414062.164063 4.8125.441406 7.199218.804688l1.167969.183594c2.359375.382812 4.6875.851562 6.984375 1.398437l1.035156.257813c2.347657.574218 4.671876 1.214843 6.9375 1.917968l.429688.148438c2.257812.710937 4.460938 1.472656 6.613281 2.277344l.582031.21875c2.117188.804687 4.164063 1.636718 6.144532 2.496093l.960937.410157c1.894531.839843 3.722657 1.683593 5.484375 2.523437l.96875.476563c1.71875.839843 3.355469 1.679687 4.902344 2.503906l.683594.375c1.574218.839844 3.074218 1.671875 4.425781 2.460937l.136719.082031c1.355468.777344 2.5625 1.496094 3.660156 2.183594l.457031.273438c1.042969.648437 1.9375 1.226562 2.742188 1.738281l.21875.136719c13.28125-1.507813 26.65625-2.0625 40.019531-1.664063-7.660156-18.9375-20.113281-35.554687-36.144531-48.21875-6.085938-4.421875-12.832031-7.859375-19.984375-10.183593l-.511719-.183594c-3.183594-.992188-6.433594-1.753906-9.726563-2.277344-.769531-.128906-1.546874-.238281-2.332031-.339844-3.410156-.480468-6.84375-.734375-10.285156-.757812-75.675781 0-109.714844 32.082031-109.714844 54.855468.007813 1.734376.164063 3.460938.464844 5.167969.0625.320313.164063.683594.238281 1.03125zm0 0" data-original="#000000" class="active-path" data-old_color="#000000" fill="#31456A"/><path d="m297.535156 228.734375c-1.65625 0-3.234375-.109375-4.9375-.109375-49.507812 0-81.03125 16.128906-89.445312 45.429688 9.609375 10.972656 25.765625 16.714843 49.457031 18.167968 14.78125-6.234375 28.773437-14.191406 41.691406-23.707031 4.855469-12.679687 5.976563-26.484375 3.234375-39.78125zm0 0" data-original="#000000" class="active-path" data-old_color="#000000" fill="#31456A"/><path d="m274.3125.0546875c-16.988281-.6992185-33.570312 5.3398435-46.132812 16.7968745-4.125 3.078126-8.542969 6.398438-13.714844 9.625l8.226562 4.261719c12.207032 6.398438 25.226563 13.128907 39.269532 18.933594.785156.328125 1.601562.621094 2.394531.914063 2.671875 1.078124 5.367187 2.140624 8.121093 3.136718 1.359376.484375 2.742188.914063 4.148438 1.390625 2.257812.757813 4.515625 1.535157 6.820312 2.230469 1.664063.492188 3.375.914062 5.058594 1.371094 2.121094.566406 4.230469 1.160156 6.398438 1.664062 1.828125.410156 3.65625.742188 5.484375 1.097656 1.832031.355469 3.59375.722657 5.421875 1.023438 3.714844-1.414062 7.335937-2.816406 10.871094-4.207031.796874-.308594 1.519531-.566407 2.296874-.867188 5.550782-2.15625 10.96875-4.25 16.273438-6.152343l.832031-.320313c-4.359375-5.140625-8.394531-10.332031-12.332031-15.40625-15.34375-19.820313-27.496094-35.4921875-49.4375-35.4921875zm0 0" data-original="#000000" class="active-path" data-old_color="#000000" fill="#31456A"/><path d="m41.5 339.539062c.300781-.695312.667969-1.410156.976562-2.105468 1.089844-2.429688 2.214844-4.863282 3.402344-7.3125.566406-1.152344 1.152344-2.324219 1.726563-3.484375 1.152343-2.320313 2.335937-4.648438 3.546875-6.976563l1.527344-2.914062c1.597656-3.050782 3.234374-6.097656 4.910156-9.144532l.265625-.484374c1.988281-3.65625 4-7.3125 6.035156-10.972657 17.085937-30.890625 34.742187-62.828125 39.394531-95.722656 0-1.675781.210938-3.777344.496094-6.0625l-2.167969-2.507813c-7.648437-8.25-14.492187-17.214843-20.433593-26.769531-.832032.578125-1.691407 1.097657-2.542969 1.664063-5.027344 3.394531-10.054688 6.691406-15.101563 9.910156l-.625.402344c-32.335937 20.710937-62.8828122 40.3125-62.8828122 78.996094 0 36.964843 16.7851562 55.769531 38.0507812 79.632812 1.136719 1.28125 2.277344 2.550781 3.421875 3.851562zm0 0" data-original="#000000" class="active-path" data-old_color="#000000" fill="#31456A"/><path d="m268.398438 387.261719c-1.289063-.355469-2.597657-.703125-3.832032-1.066407-13.089844 14.191407-30.019531 24.277344-48.730468 29.027344l2.613281 2.058594c14.804687 12.089844 30.488281 23.066406 46.921875 32.832031 9.242187 5.382813 19.28125 9.265625 29.742187 11.507813 3.40625.644531 6.871094.933594 10.339844.871094h.484375c1.308594 0 2.589844-.183594 3.851562-.347657 1.058594-.160156 2.109376-.359375 3.152344-.605469.648438-.136718 1.308594-.246093 1.9375-.429687 1.882813-.546875 3.714844-1.242187 5.488282-2.082031.234374-.113282.464843-.257813.703124-.375 1.601563-.808594 3.148438-1.722656 4.625-2.746094.382813-.261719.769532-.527344 1.152344-.8125 1.773438-1.308594 3.445313-2.746094 5.011719-4.296875 3.300781-3.308594 6.398437-6.589844 9.289063-9.855469l1.039062-1.171875c2.878906-3.273437 5.558594-6.527343 8.039062-9.761719l.402344-.53125c2.554688-3.347656 4.882813-6.667968 6.992188-9.964843 2.148437-3.367188 4.058594-6.6875 5.734375-9.96875l.117187-.253907c1.316406-2.605468 2.414063-5.128906 3.421875-7.617187.21875-.546875.464844-1.113281.675781-1.652344.824219-2.167969 1.480469-4.273437 2.085938-6.335937.28125-.988282.546875-1.976563.785156-2.945313.402344-1.609375.730469-3.191406 1.003906-4.746093.25-1.398438.441407-2.742188.605469-4.121094.074219-.652344.128907-1.28125.191407-1.921875.199218-2.253907.296874-4.457031.285156-6.609375 0-.359375 0-.722656 0-1.078125 0-1.234375-.074219-2.460938-.15625-3.660157-17.53125 16.316407-40.777344 25.082032-64.714844 24.402344-.703125 0-1.378906-.097656-2.082031-.109375-3.59375-.054687-7.152344-.226562-10.625-.566406-.851563-.082031-1.664063-.191406-2.507813-.292969-3.65625-.410156-7.230468-.914062-10.6875-1.582031l-1.71875-.347656c-3.59375-.710938-7.066406-1.507813-10.359375-2.375zm0 0" data-original="#000000" class="active-path" data-old_color="#000000" fill="#31456A"/><path d="m97.125 272.695312c-.96875 1.929688-1.929688 3.839844-2.917969 5.742188-1.761719 3.40625-3.539062 6.777344-5.339843 10.109375-.554688 1.035156-1.097657 2.078125-1.664063 3.109375-2.449219 4.507812-4.890625 8.960938-7.3125 13.320312-1.992187 3.601563-3.921875 7.132813-5.851563 10.671876-1.261718 2.320312-2.503906 4.617187-3.65625 6.855468-.496093.914063-.914062 1.828125-1.417968 2.742188-2.316406 4.390625-4.46875 8.632812-6.457032 12.726562-.710937 1.46875-1.40625 2.9375-2.082031 4.398438-1.050781 2.269531-2.058593 4.507812-2.992187 6.683594-1.34375 3.164062-2.585938 6.292968-3.65625 9.34375-8.109375 22.683593-7.707032 40.496093 7.597656 55.773437 23.085938 23.074219 41.628906 28.535156 66.605469 27.472656.082031-.019531.164062-.035156.246093-.046875 5.488282-.226562 11.210938-.773437 17.308594-1.496094l1.125-.140624c2.808594-.335938 5.6875-.710938 8.660156-1.113282l.738282-.101562c3.253906-.445313 6.601562-.914063 10.058594-1.425782l3.710937-.519531 7.925781-1.109375 4.417969-.59375c4.496094-.601562 9.085937-1.195312 13.914063-1.746094h.246093c3.660157-.417968 7.453125-.816406 11.382813-1.1875l-6.125-4.847656c-3.355469-2.660156-6.480469-5.117187-9.597656-7.550781-1.636719.164063-3.4375.183594-5.121094.300781-4.488282.367188-8.839844.605469-13.121094.605469-46.8125 0-61.90625-22.289063-66.3125-40.996094-.484375-2.113281-.855469-4.25-1.105469-6.402343-.082031-.722657-.121093-1.453126-.183593-2.183594-.117188-1.492188-.230469-2.980469-.257813-4.507813 0-.851562 0-1.710937 0-2.570312 0-1.441407.074219-2.886719.167969-4.339844.0625-.914063.117187-1.746094.207031-2.632813.136719-1.511718.339844-3.027343.558594-4.574218.109375-.8125.210937-1.617188.347656-2.429688.320313-1.828125.695313-3.714844 1.105469-5.558594.101562-.457031.175781-.914062.285156-1.382812.539062-2.292969 1.152344-4.570312 1.828125-6.839844.199219-.683594.4375-1.351562.648437-2.039062.503907-1.589844 1.015626-3.179688 1.574219-4.742188.292969-.832031.601563-1.636718.914063-2.453125.53125-1.40625 1.070312-2.796875 1.636718-4.160156.347657-.832031.683594-1.644531 1.042969-2.457031.59375-1.363282 1.195313-2.6875 1.828125-4.003906.347656-.734376.683594-1.472657 1.042969-2.195313.730469-1.472656 1.480469-2.898437 2.238281-4.296875.265625-.503906.53125-1.023438.804688-1.507812 1.03125-1.867188 2.082031-3.648438 3.152344-5.351563.25-.390625.496093-.746094.75-1.132813.832031-1.289062 1.65625-2.539062 2.496093-3.710937.386719-.550781.769531-1.042969 1.152344-1.554687.703125-.914063 1.410156-1.828126 2.121094-2.742188.414062-.503906.816406-.980469 1.226562-1.453125.292969-.339844.574219-.714844.859375-1.023437-10.21875-14.222657-18.230468-29.902344-23.773437-46.511719l-.144531-.394531c-.914063 2.316406-1.964844 4.574218-2.945313 6.867187-.914063 2.121094-1.761719 4.242187-2.742187 6.335937-1.085938 2.40625-2.203126 4.78125-3.347657 7.167969-1.242187 2.597657-2.503906 5.210938-3.800781 7.800781zm0 0" data-original="#000000" class="active-path" data-old_color="#000000" fill="#31456A"/><path d="m435.785156 189.230469c-.339844-1.042969-.695312-2.085938-1.015625-3.117188-1.398437-4.574219-2.652343-9.007812-3.792969-13.449219-.355468-1.375-.6875-2.746093-1.023437-4.070312-1.007813-4.125-1.957031-8.230469-2.828125-12.261719-.253906-1.195312-.492188-2.347656-.75-3.539062-.445312-2.175781-.914062-4.351563-1.34375-6.5-.003906-.039063-.003906-.078125 0-.117188-.375-1.828125-.777344-3.777343-1.140625-5.597656-5.613281-28.15625-10.460937-52.476563-28.042969-70.058594-16.097656-16.09375-35.792968-9.453125-72.097656 4.714844-12.464844 4.855469-25.929688 10.058594-40.734375 14.628906-.792969.25-1.664063.457031-2.46875.695313-3.820313 1.132812-7.652344 2.257812-11.65625 3.273437.066406.066407.109375.148438.183594.21875 3.503906 3.699219 6.78125 7.605469 9.808593 11.703125.359376.476563.714844.914063 1.0625 1.4375 2.804688 3.894532 5.367188 7.851563 7.699219 11.828125.382813.640625.730469 1.273438 1.097657 1.914063 2.246093 3.949218 4.296874 7.871094 6.113281 11.730468.277343.566407.511719 1.113282.777343 1.679688 1.828126 3.976562 3.476563 7.84375 4.894532 11.511719l.0625.144531c2.257812.3125 4.488281.734375 6.730468 1.144531l.34375.054688c1.832032.339843 3.585938.714843 5.359376 1.125 1.34375.300781 2.613281.628906 3.875.96875 1.648437.4375 3.257812.914062 4.847656 1.398437 1.828125.609375 3.570312 1.21875 5.21875 1.828125.859375.332031 1.71875.660157 2.550781 1.015625 2.121094.914063 4.078125 1.828125 5.917969 2.878906.75.402344 1.480468.816407 2.203125 1.253907 1.734375 1.035156 3.402343 2.167969 5 3.402343.667969.511719 1.335937 1.023438 1.976562 1.570313 1.449219 1.242187 2.816407 2.582031 4.085938 4.003906.675781.742188 1.316406 1.5 1.929687 2.296875 1.1875 1.511719 2.253906 3.113282 3.191406 4.789063.199219.359375.484376.652343.675782 1.007812 1.121094 2.230469 2.019531 4.5625 2.6875 6.964844 1.9375.503906 3.867187 1.007813 5.871094 1.5l4.488281 1.125c4.433593 1.078125 8.933593 2.148437 13.53125 3.238281 20.246093 4.4375 40.257812 9.902344 59.949219 16.375-.144532-.394531-.253907-.761718-.402344-1.144531-1.792969-4.542969-3.382813-9.070313-4.835938-13.566406zm0 0" data-original="#000000" class="active-path" data-old_color="#000000" fill="#31456A"/><path d="m439.304688 376.546875-.421876.304687c-16.792968 13.414063-34.253906 25.96875-52.3125 37.621094l-4.921874 3.28125-3.105469 2.085938c-.457031.859375-1.042969 1.71875-1.527344 2.578125-1.191406 2.113281-2.433594 4.25-3.8125 6.398437-.914063 1.464844-1.910156 2.925782-2.910156 4.390625-1.214844 1.828125-2.511719 3.65625-3.867188 5.4375-1.152343 1.546875-2.300781 3.109375-3.535156 4.664063-1.527344 1.9375-3.203125 3.914062-4.882813 5.886718-1.191406 1.382813-2.304687 2.746094-3.546874 4.152344-3.019532 3.375-6.226563 6.792969-9.71875 10.285156-1.621094 1.621094-3.273438 3.101563-4.9375 4.472657-.222657.171875-.449219.320312-.667969.492187-1.53125 1.21875-3.074219 2.34375-4.636719 3.375l-.382812.226563c-1.691407 1.089843-3.4375 2.082031-5.238282 2.972656h-.074218c-7.507813 3.722656-15.785157 5.636719-24.164063 5.585937-2.335937-.007812-4.667969-.140624-6.984375-.394531h-.257812c-.320313.429688-.648438.816407-.96875 1.246094-1.242188 1.671875-2.515626 3.429687-3.792969 5.210937-.503907.703126-.988281 1.363282-1.5 2.085938l-1.554688 2.164062c53.941407-1.554687 103.980469-19.847656 133.660157-49.527343 14.828124-14.738281 17.46875-41.03125 16.0625-64.996094zm0 0" data-original="#000000" class="active-path" data-old_color="#000000" fill="#31456A"/><path d="m457.425781 168.109375c-3.347656-1.828125-6.730469-3.65625-10.058593-5.484375.128906.539062.25 1.078125.386718 1.625.511719 2.09375 1.078125 4.199219 1.644532 6.300781.902343 3.382813 1.890624 6.796875 2.960937 10.25.585937 1.882813 1.144531 3.757813 1.828125 5.640625.6875 1.882813 1.429688 3.96875 2.167969 5.960938.742187 1.992187 1.535156 4.105468 2.386719 6.171875.722656 1.761719 1.480468 3.546875 2.269531 5.328125 1.148437 2.589844 2.394531 5.195312 3.65625 7.808594.484375.96875.914062 1.9375 1.453125 2.90625 13.042968 6.066406 23.945312 15.933593 31.277344 28.308593 7.964843-9.195312 13.050781-20.523437 14.628906-32.585937 0-12.800782-30.28125-29.136719-54.601563-42.230469zm0 0" data-original="#000000" class="active-path" data-old_color="#000000" fill="#31456A"/><path d="m484.371094 263.085938c-.914063-13.019532-10.460938-23.925782-29.183594-33.355469-25.253906-10.941407-51.617188-19.128907-78.628906-24.410157-5.652344-1.347656-11.167969-2.683593-16.550782-4.003906l-1.828124-.429687c-.535157 3.230469-1.308594 6.417969-2.3125 9.535156.566406.402344 1.152343.8125 1.738281 1.242187l.765625.542969c.558594.410157 1.136718.832031 1.710937 1.269531.320313.226563.628907.464844.914063.710938l1.699218 1.308594 1.070313.839844 1.683594 1.363281 1.199219.996093 1.671874 1.417969 1.253907 1.097657c.554687.492187 1.113281.988281 1.671875 1.5.558594.511718.914062.8125 1.316406 1.222656.402344.414062 1.097656 1.015625 1.644531 1.546875.550781.53125.914063.914062 1.382813 1.378906.464844.46875 1.058594 1.035156 1.589844 1.574219.683593.703125 1.363281 1.4375 2.039062 2.167968.675781.730469 1.289062 1.398438 1.917969 2.121094.632812.722656 1.21875 1.363282 1.828125 2.066406.414062.492188.824218 1.003907 1.234375 1.507813.550781.65625 1.089843 1.316406 1.628906 1.992187.410156.53125.8125 1.070313 1.226563 1.609376.519531.6875 1.03125 1.371093 1.542968 2.074218.402344.558594.796875 1.136719 1.191406 1.703125.492188.710938.984376 1.425781 1.460938 2.148438.476562.722656.769531 1.1875 1.144531 1.828125.464844.738281.914063 1.488281 1.378907 2.25l1.070312 1.828125c.4375.785156.867188 1.570312 1.289062 2.375.328126.625.65625 1.253906.976563 1.894531.414063.832031.804687 1.671875 1.199219 2.523438.292968.628906.585937 1.261718.867187 1.910156.386719.914062.75 1.828125 1.105469 2.742187.25.632813.515625 1.253907.742188 1.894531.367187.996094.695312 2 1.023437 3.015626.191406.585937.402344 1.160156.578125 1.753906.382812 1.28125.730469 2.589844 1.058594 3.90625.082031.347656.183594.675781.265625 1.023437.394531 1.683594.742187 3.390625 1.023437 5.128907.074219.402343.109375.824218.175782 1.234374.199218 1.324219.390624 2.660157.527343 4.03125.066407.632813.09375 1.28125.140625 1.921876.089844 1.160156.171875 2.320312.207032 3.5v2.222656 3.382812c0 .785156-.082032 1.574219-.136719 2.367188-.070313 1.125-.15625 2.257812-.273438 3.402344-.082031.824218-.191406 1.65625-.300781 2.476562-.15625 1.152344-.328125 2.304688-.53125 3.464844-.15625.851562-.3125 1.710937-.484375 2.570312-.238281 1.171875-.511719 2.359375-.804687 3.546875-.210938.867188-.421876 1.738281-.65625 2.617188-.339844 1.222656-.722657 2.464843-1.109376 3.710937-.273437.867188-.539062 1.726563-.839843 2.605469-.4375 1.308594-.914063 2.625-1.464844 3.941406-.316406.847657-.621094 1.679688-.976563 2.53125-.601562 1.453125-1.28125 2.925781-1.957031 4.40625-.335937.742188-.648437 1.472657-1.003906 2.222657-1.089844 2.230468-2.242187 4.480468-3.511719 6.757812-1.367187 2.4375-2.769531 4.777344-4.207031 7.019531 0 .15625.066406.339844.101563.496094.566406 2.3125 1.058593 4.699219 1.5 7.15625.15625.914063.28125 1.828125.421874 2.742187.308594 2.105469.554688 4.257813.730469 6.464844.089844 1.097656.15625 2.195313.199219 3.308594.101562 2.351562.09375 4.757812 0 7.207031-.042969 1.058594-.082031 2.101563-.164062 3.179688-.234376 3.066406-.632813 6.121093-1.1875 9.144531-.074219.394531-.074219.757812-.148438 1.160156 18.042969-11.789062 35.144531-24.953125 51.15625-39.378906.199219-.183594.4375-.292969.65625-.457031 24.886719-23.367188 43.566406-51.0625 43.566406-85.660157 0-.71875-.171875-1.378906-.21875-2.082031zm0 0" data-original="#000000" class="active-path" data-old_color="#000000" fill="#31456A"/><path d="m310.273438 278.554688c-3.132813 15.238281-9.355469 29.675781-18.289063 42.414062-1.144531 10.867188-3.636719 21.546875-7.414063 31.796875 17.839844-4.835937 37.011719-16.457031 55.066407-46.5625 13.796875-23.003906 8.960937-49.226563 2.351562-67.390625-9.410156 14.132812-20.019531 27.433594-31.714843 39.742188zm0 0" data-original="#000000" class="active-path" data-old_color="#000000" fill="#31456A"/><path d="m197.832031 145.765625c-.914062-.3125-1.910156-.597656-2.878906-.914063-1.476563-.441406-2.964844-.847656-4.472656-1.226562-1.011719-.246094-2.039063-.476562-3.0625-.6875-1.5-.320312-3.007813-.582031-4.515625-.8125-1.058594-.15625-2.113282-.292969-3.164063-.402344-1.507812-.15625-3.007812-.238281-4.507812-.292968-1.058594 0-2.109375-.054688-3.152344 0-1.5625 0-3.109375.183593-4.65625.355468-1.011719.113282-2.027344.210938-3.023437.386719-1.542969.304687-3.070313.695313-4.574219 1.167969-.914063.285156-1.890625.503906-2.8125.859375-1.617188.65625-3.183594 1.417969-4.691407 2.285156-.75.414063-1.535156.722656-2.277343 1.199219-2.3125 1.476562-4.457031 3.195312-6.398438 5.128906-2.542969 2.566406-4.910156 5.296875-7.097656 8.175781-.492187.636719-.957031 1.277344-1.414063 1.917969-4.167968 5.703125-7.46875 11.992188-9.792968 18.660156-.082032.265625-.175782.523438-.265625.789063-1.148438 3.464843-2.027344 7.019531-2.625 10.621093-.496094 3.011719-.816407 6.050782-.960938 9.097657-.140625 17.710937 3.84375 35.207031 11.640625 51.109375-.613281-35.730469 8.230469-63.167969 26.46875-81.828125 12.097656-12.0625 27.535156-20.214844 44.316406-23.40625l-1.527343-.574219c-1.492188-.554688-3.011719-1.09375-4.554688-1.609375zm0 0" data-original="#000000" class="active-path" data-old_color="#000000" fill="#31456A"/><path d="m235.136719 164.378906c-6.640625-.675781-40.414063-2.933594-62.59375 19.867188-19.800781 20.34375-25.679688 55.230468-17.699219 103.523437 16.613281 10.253907 35.980469 15.144531 55.46875 14h.703125c-25.003906-11.101562-37.273437-32.273437-37.273437-64 0-5.050781 4.09375-9.144531 9.140624-9.144531 5.050782 0 9.144532 4.09375 9.144532 9.144531-.019532 4.65625.363281 9.304688 1.144531 13.894531 12.359375-20.25 39.25-40.777343 97.414063-41.261718-9.945313-18.121094-28.515626-33.570313-55.449219-46.023438zm0 0" data-original="#000000" class="active-path" data-old_color="#000000" fill="#31456A"/><path d="m197.511719 451.582031c-4.011719.46875-7.824219.914063-11.609375 1.464844l-3.402344.429687c-2.542969.347657-4.917969.683594-7.3125 1.03125l-6.484375.914063c-3.832031.539063-7.496094 1.0625-11.070313 1.546875l-3.382812.449219c-1.746094.226562-3.53125.472656-5.230469.683593 26.058594 25.910157 55.140625 53.953126 79.578125 53.953126 14.246094-.144532 27.59375-6.984376 36.03125-18.460938 1.976563-2.292969 3.886719-4.6875 5.734375-7.148438l.101563-.128906c1.984375-2.640625 3.910156-5.339844 5.804687-7.988281.429688-.613281.914063-1.226563 1.324219-1.832031l.421875-.582032c-1.078125-.375-2.113281-.914062-3.191406-1.335937-2.257813-.867187-4.507813-1.828125-6.765625-2.824219-2.933594-1.328125-5.796875-2.746094-8.640625-4.226562-1.140625-.601563-2.285157-1.207032-3.425781-1.828125-4.207032-2.320313-8.234376-4.71875-12.089844-7.195313h-.070313c-5.066406-3.253906-9.914062-6.527344-14.15625-9.597656-3.34375.191406-6.5625.417969-9.753906.65625-2.046875.15625-4.1875.273438-6.171875.449219-3.894531.335937-7.578125.730469-11.261719 1.125-1.628906.109375-3.347656.265625-4.976562.445312zm0 0" data-original="#000000" class="active-path" data-old_color="#000000" fill="#31456A"/></g> </svg>
